<svg xmlns="http://www.w3.org/2000/svg" viewBox="0 0 100 100"><circle cx="50" cy="50" r="49" fill="#0F2818"/><circle cx="50" cy="50" r="47" fill="none" stroke="#C9A84C" stroke-width="1.5"/><circle cx="50" cy="50" r="43" fill="none" stroke="#C9A84C" stroke-width="0.6" stroke-opacity="0.5"/><path d="M46 80 C44 72,42 62,44 54 C46 48,50 45,50 45 C50 45,54 48,56 54 C58 62,56 72,54 80" fill="#C9A84C"/><path d="M44 78 C38 74,32 68,30 60 C28 52,32 44,38 40 C42 55,44 68,46 78" fill="#B8952A"/><path d="M56 78 C62 74,68 68,70 60 C72 52,68 44,62 40 C58 55,56 68,54 78" fill="#B8952A"/><path d="M38 48 C30 42,22 36,18 28 C28 26,38 32,44 42" fill="#C9A84C"/><path d="M62 48 C70 42,78 36,82 28 C72 26,62 32,56 42" fill="#C9A84C"/><path d="M42 38 C36 30,34 20,38 14 C44 20,46 30,46 38" fill="#C9A84C"/><path d="M58 38 C64 30,66 20,62 14 C56 20,54 30,54 38" fill="#C9A84C"/><path d="M50 15 C48 20,47 28,47 36 C48 32,50 28,52 36 C52 28,52 20,50 15" fill="#E8D5A0"/><path d="M36 80 C32 78,28 82,30 86 C38 88,48 90,50 90 C52 90,62 88,70 86 C72 82,68 78,64 80 C60 84,54 86,50 86 C46 86,40 84,36 80" fill="#C9A84C"/><path d="M44 82 C46 84,48 86,50 86 C52 86,54 84,56 82 C54 84,52 85,50 85 C48 85,46 84,44 82" fill="none" stroke="#C9A84C" stroke-width="1.5"/><circle cx="50" cy="46" r="4" fill="none" stroke="#C9A84C" stroke-width="1.2"/><path d="M48 46 Q50 43 52 46 Q50 49 48 46" fill="#C9A84C" stroke="none"/></svg>